<?xml version="1.0" encoding="UTF-8"?>
<!DOCTYPE svg PUBLIC "-//W3C//DTD SVG 1.1//EN" "http://www.w3.org/Graphics/SVG/1.1/DTD/svg11.dtd">
<svg xmlns="http://www.w3.org/2000/svg" xmlns:xlink="http://www.w3.org/1999/xlink" version="1.1" width="102px" height="32px" viewBox="-0.5 -0.5 102 32"><defs/><g><g><rect x="1" y="1" width="100" height="25.86" rx="5.17" ry="5.17" fill="#f5f5f5" stroke="#666666" stroke-width="2" pointer-events="all"/><rect x="11" y="26.86" width="80" height="4.14" fill="#f5f5f5" stroke="#666666" stroke-width="2" pointer-events="all"/><ellipse cx="89" cy="13.93" rx="8" ry="8.275862068965518" fill="#ffffff" stroke="none" pointer-events="all"/><ellipse cx="76" cy="6.17" rx="2" ry="2.0689655172413794" fill="#ffffff" stroke="none" pointer-events="all"/><ellipse cx="76" cy="21.69" rx="2" ry="2.0689655172413794" fill="#ffffff" stroke="none" pointer-events="all"/><ellipse cx="76" cy="13.93" rx="2" ry="2.0689655172413794" fill="#ffffff" stroke="none" pointer-events="all"/><ellipse cx="66.5" cy="18.59" rx="2" ry="2.0689655172413794" fill="#ffffff" stroke="none" pointer-events="all"/><ellipse cx="58" cy="18.59" rx="2" ry="2.0689655172413794" fill="#ffffff" stroke="none" pointer-events="all"/><ellipse cx="49.5" cy="18.59" rx="2" ry="2.0689655172413794" fill="#ffffff" stroke="none" pointer-events="all"/><ellipse cx="41" cy="18.59" rx="2" ry="2.0689655172413794" fill="#ffffff" stroke="none" pointer-events="all"/><ellipse cx="32.5" cy="18.59" rx="2" ry="2.0689655172413794" fill="#ffffff" stroke="none" pointer-events="all"/><ellipse cx="24" cy="18.59" rx="2" ry="2.0689655172413794" fill="#ffffff" stroke="none" pointer-events="all"/><ellipse cx="15.5" cy="18.59" rx="2" ry="2.0689655172413794" fill="#ffffff" stroke="none" pointer-events="all"/><ellipse cx="7" cy="18.59" rx="2" ry="2.0689655172413794" fill="#ffffff" stroke="none" pointer-events="all"/><path d="M 4 8.24 L 10 8.24 L 10 11.34 L 8 11.34 L 8 12.38 L 6 12.38 L 6 11.34 L 4 11.34 Z M 12.5 8.24 L 18.5 8.24 L 18.5 11.34 L 16.5 11.34 L 16.5 12.38 L 14.5 12.38 L 14.5 11.34 L 12.5 11.34 Z M 21 8.24 L 27 8.24 L 27 11.34 L 25 11.34 L 25 12.38 L 23 12.38 L 23 11.34 L 21 11.34 Z M 29.5 8.24 L 35.5 8.24 L 35.5 11.34 L 33.5 11.34 L 33.5 12.38 L 31.5 12.38 L 31.5 11.34 L 29.5 11.34 Z M 38 8.24 L 44 8.24 L 44 11.34 L 42 11.34 L 42 12.38 L 40 12.38 L 40 11.34 L 38 11.34 Z M 46.5 8.24 L 52.5 8.24 L 52.5 11.34 L 50.5 11.34 L 50.5 12.38 L 48.5 12.38 L 48.5 11.34 L 46.5 11.34 Z M 55 8.24 L 61 8.24 L 61 11.34 L 59 11.34 L 59 12.38 L 57 12.38 L 57 11.34 L 55 11.34 Z M 63.5 8.24 L 69.5 8.24 L 69.5 11.34 L 67.5 11.34 L 67.5 12.38 L 65.5 12.38 L 65.5 11.34 L 63.5 11.34 Z" fill="#ffffff" stroke="none" pointer-events="all"/><path d="M 83 10.31 L 85 8.24 L 87 10.31 M 83 17.55 L 85 19.62 L 87 17.55 M 91 10.31 L 93 8.24 L 95 10.31 M 91 17.55 L 93 19.62 L 95 17.55 M 93 19.62 L 93 16.52 L 85 11.34 L 85 8.24 M 85 19.62 L 85 16.52 L 93 11.34 L 93 8.24" fill="none" stroke="#666666" stroke-miterlimit="10" pointer-events="all"/></g></g></svg>